<?xml version="1.0" encoding="utf-8" ?>
<svg xmlns="http://www.w3.org/2000/svg" xmlns:cc="http://creativecommons.org/ns" xmlns:dc="http://purl.org/dc/elements/1.1/" xmlns:ev="http://www.w3.org/2001/xml-events" xmlns:inkscape="http://www.inkscape.org/namespaces/inkscape" xmlns:rdf="http://www.w3.org/1999/02/22-rdf-syntax-ns" xmlns:sodipodi="http://sodipodi.sourceforge.net/DTD/sodipodi-0.dtd" xmlns:xlink="http://www.w3.org/1999/xlink" baseProfile="tiny" height="30.48cm" version="1.2" viewBox="0 0 1152.0 1152.0" width="30.48cm">
  <metadata>
    <rdf:RDF>
      <cc:Work>
        <dc:format>image/svg+xml</dc:format>
        <dc:source>Vsketch with params {'__seed__': 0, 'radius_in_inches': 1.0}</dc:source>
        <dc:date>2023-01-25T13:26:42.931326</dc:date>
      </cc:Work>
    </rdf:RDF>
  </metadata>
  <defs/>
  <g fill="none" id="layer1" inkscape:groupmode="layer" inkscape:label="1" stroke="#0000ff" style="display:inline">
    <polyline points="81.5907,812.1 83.3907,816.3 85.1907,812.1"/>
    <polyline points="86.6907,815.4 86.9907,816.0 88.7907,816.3 89.6907,816.0 89.9907,815.4 89.6907,814.5 86.9907,813.6 86.6907,813.0 86.9907,812.4 88.7907,812.1 89.6907,812.4 89.9907,813.0"/>
    <line x1="92.0907" x2="95.0907" y1="815.1" y2="812.1"/>
    <line x1="93.2907" x2="95.3907" y1="813.9" y2="816.3"/>
    <polygon points="97.1907,814.8 96.8907,815.1 97.1907,815.4 97.4907,815.1"/>
    <line x1="92.0907" x2="92.0907" y1="816.3" y2="810.0"/>
    <polyline points="102.8907,813.0 101.6907,812.1 100.7907,812.1 99.5907,813.0 99.2907,813.9 99.5907,815.4 100.7907,816.3 101.6907,816.3 102.8907,815.4"/>
    <line x1="104.9907" x2="104.9907" y1="816.3" y2="812.1"/>
    <polygon points="104.9907,809.7 104.6907,810.0 104.9907,810.3 105.2907,810.0"/>
    <line x1="107.3907" x2="107.3907" y1="812.1" y2="816.3"/>
    <polyline points="107.3907,813.9 107.6907,813.0 108.2907,812.4 109.7907,812.1"/>
    <polyline points="114.5907,813.0 113.3907,812.1 112.4907,812.1 111.2907,813.0 110.9907,813.9 111.2907,815.4 112.4907,816.3 113.3907,816.3 114.5907,815.4"/>
    <line x1="116.6907" x2="116.6907" y1="816.3" y2="810.0"/>
    <polyline points="118.7907,813.9 122.3907,813.9 122.0907,812.7 121.1907,812.1 120.2907,812.1 119.0907,813.0 118.7907,813.9 119.0907,815.4 120.2907,816.3 121.1907,816.3 122.3907,815.4"/>
    <polyline points="126.5907,818.4 124.7907,815.7 124.4907,813.0 124.7907,811.5 126.5907,808.8"/>
    <polygon points="128.6907,811.2 128.3907,813.6 128.6907,815.1 129.2907,816.0 130.7907,816.3 131.6907,816.0 132.2907,815.1 132.5907,812.7 132.2907,811.2 131.6907,810.3 130.1907,810.0 129.2907,810.3"/>
    <polyline points="134.9907,815.1 134.6907,815.4 134.3907,815.1 134.6907,814.8 134.9907,815.1 134.9907,815.7 134.3907,816.3"/>
    <polygon points="143.3907,810.0 142.4907,810.3 141.8907,811.2 141.5907,813.6 141.8907,815.1 142.4907,816.0 143.9907,816.3 144.8907,816.0 145.4907,815.1 145.7907,812.7 145.4907,811.2 144.8907,810.3"/>
    <polyline points="148.1907,815.1 147.8907,815.4 147.5907,815.1 147.8907,814.8 148.1907,815.1 148.1907,815.7 147.5907,816.3"/>
    <line x1="155.0907" x2="155.0907" y1="816.3" y2="812.1"/>
    <polyline points="155.0907,813.9 155.3907,813.0 155.9907,812.4 157.4907,812.1"/>
    <line x1="162.2907" x2="162.2907" y1="812.1" y2="816.3"/>
    <polyline points="162.2907,815.4 161.0907,816.3 160.1907,816.3 158.9907,815.4 158.6907,813.9 158.9907,813.0 160.1907,812.1 161.0907,812.1 162.2907,813.0"/>
    <polyline points="167.9907,813.0 166.7907,812.1 165.8907,812.1 164.6907,813.0 164.3907,813.9 164.6907,815.4 165.8907,816.3 166.7907,816.3 167.9907,815.4"/>
    <line x1="167.9907" x2="167.9907" y1="816.3" y2="810.0"/>
    <polygon points="170.0907,810.0 170.3907,810.3 170.6907,810.0 170.3907,809.7"/>
    <line x1="170.3907" x2="170.3907" y1="812.1" y2="816.3"/>
    <polyline points="172.7907,812.1 172.7907,815.1 173.0907,816.0 174.5907,816.3 176.0907,815.1"/>
    <line x1="176.0907" x2="176.0907" y1="816.3" y2="812.1"/>
    <polyline points="178.1907,815.4 178.4907,816.0 180.2907,816.3 181.1907,816.0 181.4907,815.4 181.1907,814.5 178.4907,813.6 178.1907,813.0 178.4907,812.4 180.2907,812.1 181.1907,812.4 181.4907,813.0"/>
    <line x1="183.5907" x2="188.9907" y1="812.7" y2="812.7"/>
    <line x1="188.9907" x2="183.5907" y1="814.5" y2="814.5"/>
    <polyline points="191.9907,811.2 193.4907,810.0 193.4907,816.3"/>
    <polygon points="197.3907,815.4 197.6907,815.1 197.3907,814.8 197.0907,815.1"/>
    <polygon points="201.8907,816.3 202.7907,816.0 203.3907,815.1 203.6907,812.7 203.3907,811.2 202.7907,810.3 201.2907,810.0 200.3907,810.3 199.7907,811.2 199.4907,813.6 199.7907,815.1 200.3907,816.0"/>
    <polyline points="205.4907,818.4 207.2907,815.7 207.5907,813.0 207.2907,811.5 205.4907,808.8"/>
    <polyline points="239.9907,525.6 239.7498,518.8028 238.9741,511.6658 237.7491,504.9756 236.0535,498.3889 233.8958,491.9388 231.1289,485.3143 227.8747,478.9151 224.3587,473.093 220.2101,467.2339 215.8863,461.9838 210.9312,456.7889 205.8911,452.2219 200.2345,447.8013 194.5849,444.0143 188.3465,440.4615 182.2071,437.5346 175.8758,435.0498 169.0198,432.9202 162.0239,431.3089 155.3024,430.2688 148.5242,429.7071 141.3455,429.6365 134.1815,430.1025 127.4446,431.0367 120.7906,432.4455 113.8941,434.4397 107.5151,436.7995 100.981,439.7736 95.0122,443.0343 88.979,446.9253 83.2534,451.2563 78.1421,455.7433 73.3612,460.581 68.6998,466.0409 64.4595,471.834 60.8523,477.6 57.6623,483.607 54.9057,489.8247 52.4814,496.5821 50.6564,503.1341 49.2385,510.1718 48.384,516.9193 48.0093,523.7104 48.1365,530.8884 48.7997,538.0368 49.9192,544.7455 51.5109,551.3581 53.6943,558.1971 56.3828,564.8538 59.382,570.9582 63.0082,577.1542 66.8617,582.7587 71.1023,588.0762 75.975,593.3485 81.228,598.2419 86.5288,602.5034 92.4365,606.5825 98.2998,610.0295 104.3923,613.0527 111.0384,615.7673 117.5053,617.8742 124.475,619.5954 131.1792,620.7413 138.325,621.4327 148.1467,621.51 157.5509,620.6375 166.8238,618.8451 176.232,616.024 184.9612,612.4183 193.6178,607.7776 201.7549,602.2766 209.0097,596.2295 215.6353,589.4988 221.7894,581.8438 226.9395,573.9269 231.4434,565.1984 235.0318,556.0553 237.5838,546.962 239.2299,537.662 239.9639,527.8674 239.9907,525.6 143.9907,525.6"/>
  </g>
  <g fill="none" id="layer2" inkscape:groupmode="layer" inkscape:label="2" stroke="#008800" style="display:inline">
    <polygon points="445.708,352.1251 437.2743,356.3826 429.0602,361.0498 421.3998,365.9054 413.6734,371.342 406.2237,377.152 399.0689,383.3215 392.2262,389.8355 385.9663,396.3984 379.7827,403.541 373.958,410.9792 368.5062,418.6949 363.4405,426.6695 358.7733,434.8836 354.5158,443.3173 350.6782,451.9502 347.27,460.7615 344.2993,469.7297 341.7734,478.8332 339.6984,488.05 338.0792,497.3577 336.9199,506.7337 336.2231,516.1554 335.9907,525.6 336.2231,535.0446 336.9199,544.4663 338.0792,553.8423 339.6984,563.15 341.7734,572.3668 344.2993,581.4703 347.27,590.4385 350.6782,599.2498 354.5158,607.8827 358.7733,616.3164 363.4405,624.5305 368.2961,632.1909 373.7327,639.9173 379.5427,647.367 385.7122,654.5218 392.2262,661.3645 399.0689,667.8785 406.2237,674.048 413.6734,679.858 421.3998,685.2946 429.3843,690.3446 437.6075,694.9956 446.0496,699.2366 454.6901,703.0571 463.1522,706.3207 472.1204,709.2914 481.2239,711.8173 490.4407,713.8923 499.7484,715.5115 509.1244,716.6708 518.5461,717.3676 527.9907,717.6 537.4353,717.3676 546.857,716.6708 556.233,715.5115 565.5407,713.8923 574.7575,711.8173 583.861,709.2914 592.4734,706.448 601.2913,703.0571 609.9318,699.2366 618.3739,694.9956 626.5971,690.3446 634.5816,685.2946 642.308,679.858 649.7577,674.048 656.9125,667.8785 663.7552,661.3645 670.2692,654.5218 676.4387,647.367 682.2487,639.9173 687.6853,632.1909 692.7353,624.2064 697.3863,615.9832 701.6273,607.5411 705.4478,598.9006 708.8387,590.0827 711.7917,581.1086 714.2997,572.0001 716.3566,562.7793 717.9022,553.8423 719.0615,544.4663 719.7583,535.0446 719.9907,525.6 719.7583,516.1554 719.0615,506.7337 717.9022,497.3577 716.283,488.05 714.208,478.8332 711.6821,469.7297 708.7114,460.7615 705.3032,451.9502 701.4656,443.3173 697.2081,434.8836 692.5409,426.6695 687.6853,419.0091 682.2487,411.2827 676.4387,403.833 670.2692,396.6782 663.7552,389.8355 656.9125,383.3215 649.7577,377.152 642.308,371.342 634.5816,365.9054 626.5971,360.8554 618.3739,356.2044 609.9318,351.9634 601.6405,348.2875 592.8292,344.8793 583.861,341.9086 574.7575,339.3827 565.5407,337.3077 556.233,335.6885 546.857,334.5292 537.4353,333.8324 527.9907,333.6 518.5461,333.8324 509.1244,334.5292 499.7484,335.6885 490.4407,337.3077 481.2239,339.3827 472.1204,341.9086 463.1522,344.8793 454.3409,348.2875"/>
    <line x1="527.9907" x2="623.9907" y1="525.6" y2="525.6"/>
    <polyline points="421.9407,812.1 423.7407,816.3 425.5407,812.1"/>
    <polyline points="430.3407,813.0 430.0407,812.4 429.1407,812.1 427.3407,812.4 427.0407,813.0 427.3407,813.6 430.0407,814.5 430.3407,815.4 430.0407,816.0 429.1407,816.3 427.3407,816.0 427.0407,815.4"/>
    <line x1="432.4407" x2="432.4407" y1="810.0" y2="816.3"/>
    <line x1="435.4407" x2="432.4407" y1="812.1" y2="815.1"/>
    <line x1="433.6407" x2="435.7407" y1="813.9" y2="816.3"/>
    <polygon points="437.8407,815.1 437.5407,814.8 437.2407,815.1 437.5407,815.4"/>
    <polyline points="443.2407,813.0 442.0407,812.1 441.1407,812.1 439.9407,813.0 439.6407,813.9 439.9407,815.4 441.1407,816.3 442.0407,816.3 443.2407,815.4"/>
    <polygon points="445.3407,809.7 445.0407,810.0 445.3407,810.3 445.6407,810.0"/>
    <line x1="445.3407" x2="445.3407" y1="812.1" y2="816.3"/>
    <line x1="447.7407" x2="447.7407" y1="812.1" y2="816.3"/>
    <polyline points="447.7407,813.9 448.0407,813.0 448.6407,812.4 450.1407,812.1"/>
    <polyline points="454.9407,813.0 453.7407,812.1 452.8407,812.1 451.6407,813.0 451.3407,813.9 451.6407,815.4 452.8407,816.3 453.7407,816.3 454.9407,815.4"/>
    <line x1="457.0407" x2="457.0407" y1="810.0" y2="816.3"/>
    <polyline points="459.1407,813.9 462.7407,813.9 462.4407,812.7 461.5407,812.1 460.6407,812.1 459.4407,813.0 459.1407,813.9 459.4407,815.4 460.6407,816.3 461.5407,816.3 462.7407,815.4"/>
    <polyline points="466.9407,808.8 465.7407,810.3 465.1407,811.5 464.8407,813.0 465.1407,815.7 466.9407,818.4"/>
    <polyline points="471.7407,816.3 471.7407,810.0 468.7407,814.2 473.2407,814.2"/>
    <polygon points="475.3407,815.1 475.0407,814.8 474.7407,815.1 475.0407,815.4"/>
    <polygon points="481.3407,812.7 481.0407,811.2 480.4407,810.3 478.9407,810.0 478.0407,810.3 477.4407,811.2 477.1407,813.6 477.4407,815.1 478.0407,816.0 479.5407,816.3 480.4407,816.0 481.0407,815.1"/>
    <polyline points="483.7407,815.1 483.4407,815.4 483.1407,815.1 483.4407,814.8 483.7407,815.1 483.7407,815.7 483.1407,816.3"/>
    <polygon points="493.6407,816.0 494.2407,815.1 494.5407,812.7 494.2407,811.2 493.6407,810.3 492.1407,810.0 491.2407,810.3 490.6407,811.2 490.3407,813.6 490.6407,815.1 491.2407,816.0 492.7407,816.3"/>
    <polyline points="496.9407,815.1 496.6407,815.4 496.3407,815.1 496.6407,814.8 496.9407,815.1 496.9407,815.7 496.3407,816.3"/>
    <line x1="503.8407" x2="503.8407" y1="812.1" y2="816.3"/>
    <polyline points="503.8407,813.9 504.1407,813.0 504.7407,812.4 506.2407,812.1"/>
    <line x1="511.0407" x2="511.0407" y1="812.1" y2="816.3"/>
    <polyline points="511.0407,813.0 509.8407,812.1 508.9407,812.1 507.7407,813.0 507.4407,813.9 507.7407,815.4 508.9407,816.3 509.8407,816.3 511.0407,815.4"/>
    <line x1="516.7407" x2="516.7407" y1="810.0" y2="816.3"/>
    <polyline points="516.7407,813.0 515.5407,812.1 514.6407,812.1 513.4407,813.0 513.1407,813.9 513.4407,815.4 514.6407,816.3 515.5407,816.3 516.7407,815.4"/>
    <polygon points="519.1407,810.3 519.4407,810.0 519.1407,809.7 518.8407,810.0"/>
    <line x1="519.1407" x2="519.1407" y1="812.1" y2="816.3"/>
    <polyline points="521.5407,812.1 521.5407,815.1 521.8407,816.0 523.3407,816.3 524.8407,815.1"/>
    <line x1="524.8407" x2="524.8407" y1="812.1" y2="816.3"/>
    <polyline points="530.2407,813.0 529.9407,812.4 529.0407,812.1 527.2407,812.4 526.9407,813.0 527.2407,813.6 529.9407,814.5 530.2407,815.4 529.9407,816.0 529.0407,816.3 527.2407,816.0 526.9407,815.4"/>
    <line x1="532.3407" x2="537.7407" y1="812.7" y2="812.7"/>
    <line x1="532.3407" x2="537.7407" y1="814.5" y2="814.5"/>
    <polyline points="540.7407,811.2 542.2407,810.0 542.2407,816.3"/>
    <polygon points="546.1407,815.4 546.4407,815.1 546.1407,814.8 545.8407,815.1"/>
    <polygon points="549.1407,810.3 548.5407,811.2 548.2407,813.6 548.5407,815.1 549.1407,816.0 550.6407,816.3 551.5407,816.0 552.1407,815.1 552.4407,812.7 552.1407,811.2 551.5407,810.3 550.0407,810.0"/>
    <polyline points="554.8407,815.1 554.5407,815.4 554.2407,815.1 554.5407,814.8 554.8407,815.1 554.8407,815.7 554.2407,816.3"/>
    <line x1="561.7407" x2="561.7407" y1="812.1" y2="816.3"/>
    <polyline points="561.7407,813.3 563.2407,812.1 564.7407,812.4 565.0407,813.3 565.0407,816.3"/>
    <polyline points="565.0407,813.3 566.5407,812.1 568.0407,812.4 568.3407,813.3 568.3407,816.3"/>
    <polygon points="570.7407,813.0 570.4407,814.5 570.7407,815.4 571.3407,816.0 572.8407,816.3 574.0407,815.4 574.3407,813.9 574.0407,813.0 573.4407,812.4 571.9407,812.1"/>
    <line x1="579.7407" x2="579.7407" y1="810.0" y2="816.3"/>
    <polyline points="579.7407,813.0 578.5407,812.1 577.6407,812.1 576.4407,813.0 576.1407,813.9 576.4407,815.4 577.6407,816.3 578.5407,816.3 579.7407,815.4"/>
    <polyline points="581.8407,813.9 585.4407,813.9 585.1407,812.7 584.2407,812.1 583.3407,812.1 582.1407,813.0 581.8407,813.9 582.1407,815.4 583.3407,816.3 584.2407,816.3 585.4407,815.4"/>
    <line x1="587.5407" x2="592.9407" y1="812.7" y2="812.7"/>
    <line x1="587.5407" x2="592.9407" y1="814.5" y2="814.5"/>
    <line x1="595.3407" x2="595.3407" y1="810.0" y2="812.1"/>
    <line x1="597.7407" x2="597.7407" y1="810.0" y2="812.1"/>
    <line x1="600.1407" x2="600.1407" y1="812.1" y2="816.3"/>
    <polyline points="600.1407,813.9 600.4407,813.0 601.0407,812.4 602.5407,812.1"/>
    <line x1="607.3407" x2="607.3407" y1="812.1" y2="816.3"/>
    <polyline points="607.3407,813.0 606.1407,812.1 605.2407,812.1 604.0407,813.0 603.7407,813.9 604.0407,815.4 605.2407,816.3 606.1407,816.3 607.3407,815.4"/>
    <line x1="613.0407" x2="613.0407" y1="810.0" y2="816.3"/>
    <polyline points="613.0407,813.0 611.8407,812.1 610.9407,812.1 609.7407,813.0 609.4407,813.9 609.7407,815.4 610.9407,816.3 611.8407,816.3 613.0407,815.4"/>
    <polygon points="615.4407,809.7 615.1407,810.0 615.4407,810.3 615.7407,810.0"/>
    <line x1="615.4407" x2="615.4407" y1="812.1" y2="816.3"/>
    <polyline points="617.8407,812.1 617.8407,815.1 618.1407,816.0 619.6407,816.3 621.1407,815.1"/>
    <line x1="621.1407" x2="621.1407" y1="812.1" y2="816.3"/>
    <polyline points="626.5407,813.0 626.2407,812.4 625.3407,812.1 623.5407,812.4 623.2407,813.0 623.5407,813.6 626.2407,814.5 626.5407,815.4 626.2407,816.0 625.3407,816.3 623.5407,816.0 623.2407,815.4"/>
    <line x1="628.6407" x2="628.6407" y1="810.0" y2="812.1"/>
    <line x1="631.0407" x2="631.0407" y1="810.0" y2="812.1"/>
    <polyline points="633.1407,808.8 634.9407,811.5 635.2407,813.0 634.9407,815.7 633.1407,818.4"/>
  </g>
  <g fill="none" id="layer3" inkscape:groupmode="layer" inkscape:label="3" stroke="#ff0000" style="display:inline">
    <polygon points="1076.7353,624.2064 1081.3863,615.9832 1085.6273,607.5411 1089.4478,598.9006 1092.8387,590.0827 1095.7917,581.1086 1098.2997,572.0001 1100.3566,562.7793 1101.9574,553.4685 1103.0615,544.4663 1103.7583,535.0446 1103.9907,525.6 1103.7583,516.1554 1103.0615,506.7337 1101.9574,497.7315 1100.3566,488.4207 1098.2997,479.1999 1095.7917,470.0914 1092.8387,461.1173 1089.4478,452.2994 1085.6273,443.6589 1081.3863,435.2168 1076.7353,426.9936 1071.6853,419.0091 1066.2487,411.2827 1060.4387,403.833 1054.2692,396.6782 1047.7552,389.8355 1040.9125,383.3215 1033.7577,377.152 1026.308,371.342 1018.5816,365.9054 1010.5971,360.8554 1002.3739,356.2044 993.9318,351.9634 985.2913,348.1429 976.4734,344.752 967.4993,341.799 958.3908,339.291 949.17,337.2341 939.8592,335.6333 930.4809,334.4924 921.4353,333.8324 911.9907,333.6 902.5461,333.8324 893.1244,334.5292 883.7484,335.6885 874.4407,337.3077 865.2239,339.3827 856.1204,341.9086 847.1522,344.8793 838.3409,348.2875 829.708,352.1251 821.2743,356.3826 813.0602,361.0498 805.3998,365.9054 797.6734,371.342 790.2237,377.152 783.0689,383.3215 776.2262,389.8355 769.7122,396.6782 763.5427,403.833 757.7327,411.2827 752.2961,419.0091 747.2461,426.9936 742.7733,434.8836 738.5158,443.3173 734.6782,451.9502 731.27,460.7615 728.2993,469.7297 725.7734,478.8332 723.6984,488.05 722.0792,497.3577 720.9199,506.7337 720.2231,516.1554 719.9907,525.6 720.2231,535.0446 720.9199,544.4663 722.0792,553.8423 723.6984,563.15 725.7734,572.3668 728.2993,581.4703 731.27,590.4385 734.6782,599.2498 738.5158,607.8827 742.7733,616.3164 747.4405,624.5305 752.5062,632.5051 757.958,640.2208 763.7827,647.659 769.7122,654.5218 776.2262,661.3645 783.0689,667.8785 790.2237,674.048 797.6734,679.858 805.3998,685.2946 813.3843,690.3446 821.6075,694.9956 830.0496,699.2366 838.6901,703.0571 847.1522,706.3207 856.1204,709.2914 865.2239,711.8173 874.4407,713.8923 883.7484,715.5115 893.1244,716.6708 902.5461,717.3676 911.9907,717.6 921.4353,717.3676 930.857,716.6708 940.233,715.5115 949.5407,713.8923 958.7575,711.8173 967.861,709.2914 976.4734,706.448 985.2913,703.0571 993.9318,699.2366 1002.3739,694.9956 1010.5971,690.3446 1018.5816,685.2946 1026.308,679.858 1033.7577,674.048 1040.9125,667.8785 1047.7552,661.3645 1054.2692,654.5218 1060.4387,647.367 1066.2487,639.9173 1071.6853,632.1909"/>
    <line x1="1007.9907" x2="911.9907" y1="525.6" y2="525.6"/>
    <polyline points="896.2407,808.8 897.4407,810.3 898.0407,811.5 898.3407,813.0 898.0407,815.7 896.2407,818.4"/>
    <polyline points="900.4407,816.3 901.0407,815.7 901.0407,815.1 900.7407,814.8 900.4407,815.1 900.7407,815.4 901.0407,815.1"/>
    <polygon points="900.7407,813.3 901.0407,813.0 900.7407,812.7 900.4407,813.0"/>
    <polyline points="907.3407,812.1 909.1407,816.3 910.9407,812.1"/>
    <polyline points="912.4407,815.4 912.7407,816.0 914.5407,816.3 915.4407,816.0 915.7407,815.4 915.4407,814.5 912.7407,813.6 912.4407,813.0 912.7407,812.4 914.5407,812.1 915.4407,812.4 915.7407,813.0"/>
    <line x1="917.8407" x2="920.8407" y1="815.1" y2="812.1"/>
    <line x1="919.0407" x2="921.1407" y1="813.9" y2="816.3"/>
    <polygon points="922.9407,814.8 922.6407,815.1 922.9407,815.4 923.2407,815.1"/>
    <line x1="917.8407" x2="917.8407" y1="816.3" y2="810.0"/>
    <polyline points="928.6407,813.0 927.4407,812.1 926.5407,812.1 925.3407,813.0 925.0407,813.9 925.3407,815.4 926.5407,816.3 927.4407,816.3 928.6407,815.4"/>
    <line x1="930.7407" x2="930.7407" y1="816.3" y2="812.1"/>
    <polygon points="930.7407,809.7 930.4407,810.0 930.7407,810.3 931.0407,810.0"/>
    <line x1="933.1407" x2="933.1407" y1="812.1" y2="816.3"/>
    <polyline points="933.1407,813.9 933.4407,813.0 934.0407,812.4 935.5407,812.1"/>
    <polyline points="940.3407,813.0 939.1407,812.1 938.2407,812.1 937.0407,813.0 936.7407,813.9 937.0407,815.4 938.2407,816.3 939.1407,816.3 940.3407,815.4"/>
    <line x1="942.4407" x2="942.4407" y1="816.3" y2="810.0"/>
    <polyline points="944.5407,813.9 948.1407,813.9 947.8407,812.7 946.9407,812.1 946.0407,812.1 944.8407,813.0 944.5407,813.9 944.8407,815.4 946.0407,816.3 946.9407,816.3 948.1407,815.4"/>
    <polyline points="952.3407,818.4 950.5407,815.7 950.2407,813.0 950.5407,811.5 952.3407,808.8"/>
    <polygon points="954.1407,815.1 954.1407,814.2 955.0407,813.0 957.1407,812.4 957.7407,812.1 958.0407,811.5 957.7407,810.3 955.6407,810.0 954.7407,810.3 954.4407,810.9 954.7407,812.1 957.4407,813.0 958.3407,814.2 958.0407,815.7 956.8407,816.3 954.7407,816.0"/>
    <polygon points="960.1407,815.1 960.4407,815.4 960.7407,815.1 960.4407,814.8"/>
    <polygon points="964.9407,816.3 965.8407,816.0 966.4407,815.1 966.7407,812.7 966.4407,811.2 965.8407,810.3 964.3407,810.0 963.4407,810.3 962.8407,811.2 962.5407,813.6 962.8407,815.1 963.4407,816.0"/>
    <polyline points="968.5407,816.3 969.1407,815.7 969.1407,815.1 968.8407,814.8 968.5407,815.1 968.8407,815.4 969.1407,815.1"/>
    <polygon points="976.6407,810.3 976.0407,811.2 975.7407,813.6 976.0407,815.1 976.6407,816.0 978.1407,816.3 979.0407,816.0 979.6407,815.1 979.9407,812.7 979.6407,811.2 979.0407,810.3 977.5407,810.0"/>
    <polyline points="982.3407,815.1 982.0407,815.4 981.7407,815.1 982.0407,814.8 982.3407,815.1 982.3407,815.7 981.7407,816.3"/>
    <line x1="989.2407" x2="989.2407" y1="816.3" y2="812.1"/>
    <polyline points="989.2407,813.9 989.5407,813.0 990.1407,812.4 991.6407,812.1"/>
    <line x1="996.4407" x2="996.4407" y1="812.1" y2="816.3"/>
    <polyline points="996.4407,815.4 995.2407,816.3 994.3407,816.3 993.1407,815.4 992.8407,813.9 993.1407,813.0 994.3407,812.1 995.2407,812.1 996.4407,813.0"/>
    <polyline points="1002.1407,813.0 1000.9407,812.1 1000.0407,812.1 998.8407,813.0 998.5407,813.9 998.8407,815.4 1000.0407,816.3 1000.9407,816.3 1002.1407,815.4"/>
    <line x1="1002.1407" x2="1002.1407" y1="816.3" y2="810.0"/>
    <polygon points="1004.8407,810.0 1004.5407,809.7 1004.2407,810.0 1004.5407,810.3"/>
    <line x1="1004.5407" x2="1004.5407" y1="812.1" y2="816.3"/>
    <polyline points="1006.9407,812.1 1006.9407,815.1 1007.2407,816.0 1008.7407,816.3 1010.2407,815.1"/>
    <line x1="1010.2407" x2="1010.2407" y1="816.3" y2="812.1"/>
    <polyline points="1012.3407,815.4 1012.6407,816.0 1014.4407,816.3 1015.3407,816.0 1015.6407,815.4 1015.3407,814.5 1012.6407,813.6 1012.3407,813.0 1012.6407,812.4 1014.4407,812.1 1015.3407,812.4 1015.6407,813.0"/>
    <line x1="1017.7407" x2="1023.1407" y1="812.7" y2="812.7"/>
    <line x1="1023.1407" x2="1017.7407" y1="814.5" y2="814.5"/>
    <polyline points="1026.1407,811.2 1027.6407,810.0 1027.6407,816.3"/>
    <polygon points="1031.5407,814.8 1031.2407,815.1 1031.5407,815.4 1031.8407,815.1"/>
    <polygon points="1036.9407,810.3 1035.4407,810.0 1034.5407,810.3 1033.9407,811.2 1033.6407,813.6 1033.9407,815.1 1034.5407,816.0 1036.0407,816.3 1036.9407,816.0 1037.5407,815.1 1037.8407,812.7 1037.5407,811.2"/>
    <polyline points="1039.6407,808.8 1040.8407,810.3 1041.4407,811.5 1041.7407,813.0 1041.4407,815.7 1039.6407,818.4"/>
    <line x1="894.1407" x2="894.1407" y1="812.1" y2="810.0"/>
    <line x1="891.7407" x2="891.7407" y1="810.0" y2="812.1"/>
    <polyline points="889.6407,813.0 889.3407,812.4 888.4407,812.1 886.6407,812.4 886.3407,813.0 886.6407,813.6 889.3407,814.5 889.6407,815.4 889.3407,816.0 888.4407,816.3 886.6407,816.0 886.3407,815.4"/>
    <polyline points="884.2407,815.1 882.7407,816.3 881.2407,816.0 880.9407,815.1 880.9407,812.1"/>
    <line x1="878.5407" x2="878.5407" y1="812.1" y2="816.3"/>
    <line x1="876.1407" x2="876.1407" y1="816.3" y2="810.0"/>
    <polygon points="878.5407,809.7 878.2407,810.0 878.5407,810.3 878.8407,810.0"/>
    <polyline points="876.1407,813.0 874.9407,812.1 874.0407,812.1 872.8407,813.0 872.5407,813.9 872.8407,815.4 874.0407,816.3 874.9407,816.3 876.1407,815.4"/>
    <polyline points="870.4407,815.4 869.2407,816.3 868.3407,816.3 867.1407,815.4 866.8407,813.9 867.1407,813.0 868.3407,812.1 869.2407,812.1 870.4407,813.0"/>
    <line x1="870.4407" x2="870.4407" y1="812.1" y2="816.3"/>
    <polyline points="865.6407,812.1 864.1407,812.4 863.5407,813.0 863.2407,813.9"/>
    <line x1="863.2407" x2="863.2407" y1="812.1" y2="816.3"/>
    <line x1="860.8407" x2="860.8407" y1="812.1" y2="810.0"/>
    <line x1="858.4407" x2="858.4407" y1="810.0" y2="812.1"/>
    <polyline points="856.3407,808.8 854.5407,811.5 854.2407,813.0 854.5407,815.7 856.3407,818.4"/>
    <polyline points="852.1407,815.4 850.9407,816.3 850.0407,816.3 848.8407,815.4 848.5407,813.9 848.8407,813.0 850.0407,812.1 850.9407,812.1 851.8407,812.7 852.1407,813.9 848.5407,813.9"/>
    <polyline points="846.4407,813.0 845.2407,812.1 844.3407,812.1 843.1407,813.0 842.8407,813.9 843.1407,815.4 844.3407,816.3 845.2407,816.3 846.4407,815.4"/>
    <line x1="846.4407" x2="846.4407" y1="816.3" y2="810.0"/>
    <polygon points="840.1407,812.4 838.6407,812.1 837.4407,813.0 837.1407,814.5 837.4407,815.4 838.0407,816.0 839.5407,816.3 840.7407,815.4 841.0407,813.9 840.7407,813.0"/>
    <polyline points="835.0407,816.3 835.0407,810.0 832.6407,816.3 830.2407,810.0 830.2407,816.3"/>
    <polyline points="828.1407,815.4 826.9407,816.3 826.0407,816.3 824.8407,815.4 824.5407,813.9 824.8407,813.0 826.0407,812.1 826.9407,812.1 827.8407,812.7 828.1407,813.9 824.5407,813.9"/>
    <polyline points="822.7407,813.0 822.4407,812.4 821.5407,812.1 819.7407,812.4 819.4407,813.0 819.7407,813.6 822.4407,814.5 822.7407,815.4 822.4407,816.0 821.5407,816.3 819.7407,816.0 819.4407,815.4"/>
    <polyline points="814.0407,815.4 815.2407,816.3 816.1407,816.3 817.3407,815.4 817.6407,813.9 817.3407,813.0 816.1407,812.1 815.2407,812.1 814.0407,813.0"/>
    <line x1="814.0407" x2="814.0407" y1="812.1" y2="818.4"/>
    <line x1="811.6407" x2="811.6407" y1="816.3" y2="812.1"/>
    <polygon points="811.6407,809.7 811.3407,810.0 811.6407,810.3 811.9407,810.0"/>
    <line x1="809.2407" x2="809.2407" y1="810.0" y2="816.3"/>
    <line x1="806.8407" x2="806.8407" y1="816.3" y2="810.0"/>
    <polyline points="804.7407,815.4 803.5407,816.3 802.6407,816.3 801.4407,815.4 801.1407,813.9 801.4407,813.0 802.6407,812.1 803.5407,812.1 804.4407,812.7 804.7407,813.9 801.1407,813.9"/>
    <polygon points="799.3407,815.1 799.0407,814.8 798.7407,815.1 799.0407,815.4"/>
    <line x1="797.2407" x2="795.1407" y1="816.3" y2="813.9"/>
    <line x1="793.9407" x2="796.9407" y1="815.1" y2="812.1"/>
    <line x1="793.9407" x2="793.9407" y1="810.0" y2="816.3"/>
    <polyline points="791.8407,813.0 791.5407,812.4 790.6407,812.1 788.8407,812.4 788.5407,813.0 788.8407,813.6 791.5407,814.5 791.8407,815.4 791.5407,816.0 790.6407,816.3 788.8407,816.0 788.5407,815.4"/>
    <polyline points="787.0407,812.1 785.2407,816.3 783.4407,812.1"/>
    <line x1="884.2407" x2="884.2407" y1="812.1" y2="816.3"/>
  </g>
</svg>
