<?xml version="1.0" encoding="utf-8" ?>
<svg xmlns="http://www.w3.org/2000/svg" xmlns:cc="http://creativecommons.org/ns" xmlns:dc="http://purl.org/dc/elements/1.1/" xmlns:ev="http://www.w3.org/2001/xml-events" xmlns:inkscape="http://www.inkscape.org/namespaces/inkscape" xmlns:rdf="http://www.w3.org/1999/02/22-rdf-syntax-ns" xmlns:sodipodi="http://sodipodi.sourceforge.net/DTD/sodipodi-0.dtd" xmlns:xlink="http://www.w3.org/1999/xlink" baseProfile="tiny" height="30.48cm" version="1.2" viewBox="0 0 1152.0 1152.0" width="30.48cm">
  <metadata>
    <rdf:RDF>
      <cc:Work>
        <dc:format>image/svg+xml</dc:format>
        <dc:source>Vsketch with params {'__seed__': 0, 'radius_in_inches': 1.0}</dc:source>
        <dc:date>2023-01-25T13:06:06.894160</dc:date>
      </cc:Work>
    </rdf:RDF>
  </metadata>
  <defs/>
  <g fill="none" id="layer1" inkscape:groupmode="layer" inkscape:label="1" stroke="#0000ff" style="display:inline">
    <polyline points="239.9967,576.0 239.7557,569.2028 239.0868,562.8141 237.9145,556.1144 236.2708,549.5146 234.164,543.0477 231.6045,536.7462 228.7833,530.9752 225.3826,525.085 221.5733,519.4504 217.3747,514.0996 212.8078,509.0595 207.8954,504.3554 202.6624,500.011 197.1348,496.0479 191.3406,492.4862 185.6495,489.507 179.4209,486.7749 173.0146,484.4906 166.4625,482.6657 160.1704,481.3723 153.4298,480.4646 146.6419,480.0365 140.2183,480.0744 133.4359,480.5827 126.7065,481.5699 120.43,482.9376 113.9,484.8397 107.5211,487.1995 101.3252,490.005 95.3435,493.2421 89.6061,496.8946 84.1416,500.9442 78.9776,505.3705 74.14,510.1514 69.653,515.2627 65.7575,520.3705 62.0151,526.0498 58.8582,531.6442 55.9313,537.7836 53.4464,544.1149 51.4161,550.6062 49.9251,556.8545 48.8057,563.5632 48.164,570.3343 48.0033,577.1338 48.3245,583.9276 49.126,590.6817 50.4036,597.362 52.151,603.9351 54.3594,610.368 56.8585,616.2857 59.9295,622.3543 63.4226,628.1902 67.3201,633.7642 71.6024,639.0482 76.2482,644.0157 81.2339,648.6419 86.5348,652.9034 92.124,656.7789 97.9737,660.2489 104.0543,663.2961 110.3354,665.9051 116.7855,668.0628 123.0033,669.6765 133.4359,671.4173 143.9967,672.0 154.5574,671.4173 164.99,669.6765 175.1678,666.7985 184.9672,662.8183 194.5908,657.5857 203.2589,651.5248 211.2075,644.5471 218.3403,636.7373 224.5707,628.1902 229.823,619.0097 234.0336,609.307 237.1511,599.2001 239.1379,588.8115 239.9699,578.2674 239.9967,576.0 143.9967,576.0"/>
  </g>
  <g fill="none" id="layer2" inkscape:groupmode="layer" inkscape:label="2" stroke="#008800" style="display:inline">
    <polygon points="634.9017,735.4845 642.6174,730.0327 650.0556,724.208 656.9185,718.2785 663.7612,711.7645 670.2751,704.9218 676.4446,697.767 682.2547,690.3173 687.6913,682.5909 692.7412,674.6064 697.3923,666.3832 701.6332,657.9411 705.4538,649.3006 708.8446,640.4827 711.7976,631.5086 714.3056,622.4001 716.3625,613.1793 717.9081,604.2423 719.0675,594.8663 719.7642,585.4446 719.9967,576.0 719.7642,566.5554 719.0675,557.1337 717.9081,547.7577 716.289,538.45 714.2139,529.2332 711.688,520.1297 708.7173,511.1615 705.3091,502.3502 701.4716,493.7173 697.2141,485.2836 692.5468,477.0695 687.6913,469.4091 682.2547,461.6827 676.4446,454.233 670.2751,447.0782 663.7612,440.2355 656.9185,433.7215 649.7636,427.552 642.314,421.742 634.5876,416.3054 626.6031,411.2554 618.3798,406.6044 609.9377,402.3634 601.6464,398.6875 592.8352,395.2793 583.8669,392.3086 574.7634,389.7827 565.5467,387.7077 556.239,386.0885 546.863,384.9292 537.4412,384.2324 527.9967,384.0 518.5521,384.2324 509.1303,384.9292 499.7543,386.0885 490.4466,387.7077 481.2299,389.7827 472.1264,392.3086 463.1581,395.2793 454.3469,398.6875 445.7139,402.5251 437.2802,406.7826 429.0662,411.4498 421.4057,416.3054 413.6793,421.742 406.2297,427.552 399.0748,433.7215 392.2322,440.2355 385.9722,446.7984 379.7887,453.941 373.9639,461.3792 368.5121,469.0949 363.4465,477.0695 358.7792,485.2836 354.5217,493.7173 350.6842,502.3502 347.276,511.1615 344.3053,520.1297 341.7794,529.2332 339.7043,538.45 338.0852,547.7577 336.9258,557.1337 336.2291,566.5554 335.9967,576.0 336.2291,585.4446 336.9258,594.8663 338.0852,604.2423 339.7043,613.55 341.7794,622.7668 344.3053,631.8703 347.276,640.8385 350.6842,649.6498 354.5217,658.2827 358.7792,666.7164 363.4465,674.9305 368.302,682.5909 373.7386,690.3173 379.5487,697.767 385.7182,704.9218 392.2322,711.7645 399.0748,718.2785 406.2297,724.448 413.6793,730.258 421.4057,735.6946 429.3902,740.7446 437.6135,745.3956 446.0556,749.6366 454.6961,753.4571 463.1581,756.7207 472.1264,759.6914 481.2299,762.2173 490.4466,764.2923 499.7543,765.9115 509.1303,767.0708 518.5521,767.7676 527.9967,768.0 537.4412,767.7676 546.863,767.0708 556.239,765.9115 565.5467,764.2923 574.7634,762.2173 583.8669,759.6914 592.8352,756.7207 601.6464,753.3125 610.2794,749.4749 618.7131,745.2174 626.9272,740.5502"/>
    <line x1="623.9967" x2="527.9967" y1="576.0" y2="576.0"/>
  </g>
  <g fill="none" id="layer3" inkscape:groupmode="layer" inkscape:label="3" stroke="#ff0000" style="display:inline">
    <polygon points="940.239,765.9115 949.5467,764.2923 958.7634,762.2173 967.8669,759.6914 976.8352,756.7207 985.6464,753.3125 994.2794,749.4749 1002.7131,745.2174 1010.9272,740.5502 1018.9017,735.4845 1026.314,730.258 1033.7636,724.448 1040.9185,718.2785 1047.7612,711.7645 1054.2751,704.9218 1060.4446,697.767 1066.2547,690.3173 1071.6913,682.5909 1076.7412,674.6064 1081.3923,666.3832 1085.6332,657.9411 1089.4538,649.3006 1092.8446,640.4827 1095.7976,631.5086 1098.3056,622.4001 1100.3625,613.1793 1101.9634,603.8685 1103.0675,594.8663 1103.7642,585.4446 1103.9967,576.0 1103.7642,566.5554 1103.0675,557.1337 1101.9634,548.1315 1100.3625,538.8207 1098.3056,529.5999 1095.7976,520.4914 1092.8446,511.5173 1089.4538,502.6994 1085.6332,494.0589 1081.3923,485.6168 1076.7412,477.3936 1071.6913,469.4091 1066.2547,461.6827 1060.4446,454.233 1054.2751,447.0782 1047.7612,440.2355 1040.9185,433.7215 1033.7636,427.552 1026.314,421.742 1018.5876,416.3054 1010.6031,411.2554 1002.3798,406.6044 993.9377,402.3634 985.2973,398.5429 976.4793,395.152 967.5052,392.199 958.3968,389.691 949.1759,387.6341 939.8651,386.0333 930.4868,384.8924 921.4412,384.2324 911.9967,384.0 902.5521,384.2324 893.1303,384.9292 883.7543,386.0885 874.4466,387.7077 865.2299,389.7827 856.1264,392.3086 847.1581,395.2793 838.3469,398.6875 829.7139,402.5251 821.2802,406.7826 813.0662,411.4498 805.4057,416.3054 797.6793,421.742 790.2297,427.552 783.0748,433.7215 776.2322,440.2355 769.7182,447.0782 763.5487,454.233 757.7386,461.6827 752.302,469.4091 747.2521,477.3936 742.7792,485.2836 738.5217,493.7173 734.6842,502.3502 731.276,511.1615 728.3053,520.1297 725.7794,529.2332 723.7043,538.45 722.0852,547.7577 720.9258,557.1337 720.2291,566.5554 719.9967,576.0 720.2291,585.4446 720.9258,594.8663 722.0852,604.2423 723.7043,613.55 725.7794,622.7668 728.3053,631.8703 731.276,640.8385 734.6842,649.6498 738.5217,658.2827 742.7792,666.7164 747.4465,674.9305 752.5121,682.9051 757.9639,690.6208 763.7887,698.059 769.7182,704.9218 776.2322,711.7645 783.0748,718.2785 790.2297,724.448 797.6793,730.258 805.4057,735.6946 813.3902,740.7446 821.6135,745.3956 830.0556,749.6366 838.6961,753.4571 847.1581,756.7207 856.1264,759.6914 865.2299,762.2173 874.4466,764.2923 883.7543,765.9115 893.1303,767.0708 902.5521,767.7676 911.9967,768.0 921.4412,767.7676 930.863,767.0708"/>
    <line x1="911.9967" x2="1007.9967" y1="576.0" y2="576.0"/>
  </g>
</svg>
